<svg xmlns="http://www.w3.org/2000/svg" width="1800" height="1200" viewBox="0 0 1800 1200">
<defs>
  <linearGradient id="bg" x1="0" y1="0" x2="1" y2="1">
    <stop offset="0%" stop-color="#09090b"/>
    <stop offset="55%" stop-color="#111216"/>
    <stop offset="100%" stop-color="#050507"/>
  </linearGradient>
  <filter id="shadow" x="-20%" y="-20%" width="140%" height="140%">
    <feDropShadow dx="0" dy="18" stdDeviation="18" flood-color="#000000" flood-opacity="0.55"/>
  </filter>
  <linearGradient id="stroke" x1="0" y1="0" x2="1" y2="1">
    <stop offset="0%" stop-color="rgba(255,255,255,0.5)"/>
    <stop offset="100%" stop-color="rgba(255,255,255,0.08)"/>
  </linearGradient>
</defs>
<rect width="100%" height="100%" fill="url(#bg)"/>

<polygon points="70.9,71.8 173.0,43.4 250.1,82.9 238.3,119.5 133.0,142.0 55.6,107.7" fill="rgb(31,32,35)" stroke="rgba(255,255,255,0.34)" stroke-width="2.3" filter="url(#shadow)"/>
<line x1="70.9" y1="71.8" x2="173.0" y2="43.4" stroke="rgba(255,255,255,0.20)" stroke-width="2" />
<polygon points="319.7,57.3 426.9,81.9 392.1,151.4 292.4,114.2" fill="rgb(18,19,22)" stroke="rgba(255,255,255,0.27)" stroke-width="2.3" filter="url(#shadow)"/>
<line x1="319.7" y1="57.3" x2="426.9" y2="81.9" stroke="rgba(255,255,255,0.20)" stroke-width="2" />
<polygon points="547.4,43.5 626.3,99.3 555.3,164.7 493.6,107.0" fill="rgb(23,24,27)" stroke="rgba(255,255,255,0.29)" stroke-width="2.3" filter="url(#shadow)"/>
<line x1="547.4" y1="43.5" x2="626.3" y2="99.3" stroke="rgba(255,255,255,0.20)" stroke-width="2" />
<polygon points="946.0,98.4 1028.6,56.1 1104.5,101.9 1062.6,170.6 952.3,149.3" fill="rgb(30,31,34)" stroke="rgba(255,255,255,0.32)" stroke-width="2.3" filter="url(#shadow)"/>
<line x1="946.0" y1="98.4" x2="1028.6" y2="56.1" stroke="rgba(255,255,255,0.20)" stroke-width="2" />
<polygon points="1135.0,131.2 1203.5,62.3 1265.0,104.1 1274.6,145.9 1226.6,202.8 1143.7,187.3" fill="rgb(18,19,22)" stroke="rgba(255,255,255,0.35)" stroke-width="2.3" filter="url(#shadow)"/>
<line x1="1203.5" y1="62.3" x2="1265.0" y2="104.1" stroke="rgba(255,255,255,0.20)" stroke-width="2" />
<polygon points="1355.6,70.5 1420.9,61.5 1478.6,112.3 1407.5,163.0 1339.9,127.3" fill="rgb(25,26,29)" stroke="rgba(255,255,255,0.33)" stroke-width="2.3" filter="url(#shadow)"/>
<line x1="1355.6" y1="70.5" x2="1420.9" y2="61.5" stroke="rgba(255,255,255,0.20)" stroke-width="2" />
<polygon points="1554.9,101.6 1614.3,69.7 1698.5,68.6 1732.2,128.9 1675.8,164.7 1581.6,154.8" fill="rgb(19,20,23)" stroke="rgba(255,255,255,0.30)" stroke-width="2.3" filter="url(#shadow)"/>
<line x1="1614.3" y1="69.7" x2="1698.5" y2="68.6" stroke="rgba(255,255,255,0.20)" stroke-width="2" />
<polygon points="302.4,270.2 405.9,254.7 476.0,302.9 474.2,344.7 336.5,367.1 287.8,336.3" fill="rgb(30,31,34)" stroke="rgba(255,255,255,0.36)" stroke-width="2.3" filter="url(#shadow)"/>
<line x1="302.4" y1="270.2" x2="405.9" y2="254.7" stroke="rgba(255,255,255,0.20)" stroke-width="2" />
<polygon points="473.7,276.2 563.9,244.2 628.9,311.7 570.0,383.1 474.9,350.6" fill="rgb(21,22,25)" stroke="rgba(255,255,255,0.27)" stroke-width="2.3" filter="url(#shadow)"/>
<line x1="473.7" y1="276.2" x2="563.9" y2="244.2" stroke="rgba(255,255,255,0.20)" stroke-width="2" />
<polygon points="707.3,320.9 800.6,253.0 869.2,319.5 788.5,404.6" fill="rgb(29,30,33)" stroke="rgba(255,255,255,0.34)" stroke-width="2.3" filter="url(#shadow)"/>
<line x1="800.6" y1="253.0" x2="869.2" y2="319.5" stroke="rgba(255,255,255,0.20)" stroke-width="2" />
<polygon points="913.6,292.2 965.8,230.3 1055.0,259.5 1060.7,307.4 1017.4,353.6 947.4,349.5" fill="rgb(31,32,35)" stroke="rgba(255,255,255,0.26)" stroke-width="2.3" filter="url(#shadow)"/>
<line x1="965.8" y1="230.3" x2="1055.0" y2="259.5" stroke="rgba(255,255,255,0.20)" stroke-width="2" />
<polygon points="1127.5,286.7 1226.5,252.5 1300.4,308.2 1207.8,360.4" fill="rgb(22,23,26)" stroke="rgba(255,255,255,0.27)" stroke-width="2.3" filter="url(#shadow)"/>
<line x1="1127.5" y1="286.7" x2="1226.5" y2="252.5" stroke="rgba(255,255,255,0.20)" stroke-width="2" />
<polygon points="1363.7,278.6 1451.6,240.1 1554.0,285.7 1515.7,357.9 1433.6,368.2" fill="rgb(26,27,30)" stroke="rgba(255,255,255,0.35)" stroke-width="2.3" filter="url(#shadow)"/>
<line x1="1363.7" y1="278.6" x2="1451.6" y2="240.1" stroke="rgba(255,255,255,0.20)" stroke-width="2" />
<polygon points="88.6,452.2 159.3,434.3 210.8,493.1 153.0,544.9 84.2,525.5" fill="rgb(21,22,25)" stroke="rgba(255,255,255,0.35)" stroke-width="2.3" filter="url(#shadow)"/>
<line x1="88.6" y1="452.2" x2="159.3" y2="434.3" stroke="rgba(255,255,255,0.20)" stroke-width="2" />
<polygon points="252.4,503.9 371.1,435.7 449.9,479.5 448.4,537.9 320.2,572.0" fill="rgb(32,33,36)" stroke="rgba(255,255,255,0.35)" stroke-width="2.3" filter="url(#shadow)"/>
<line x1="371.1" y1="435.7" x2="449.9" y2="479.5" stroke="rgba(255,255,255,0.20)" stroke-width="2" />
<polygon points="708.6,453.8 771.4,427.1 839.1,472.5 822.8,559.4 747.9,574.4 693.6,540.4" fill="rgb(19,20,23)" stroke="rgba(255,255,255,0.30)" stroke-width="2.3" filter="url(#shadow)"/>
<line x1="708.6" y1="453.8" x2="771.4" y2="427.1" stroke="rgba(255,255,255,0.20)" stroke-width="2" />
<polygon points="1055.0,421.7 1121.6,479.4 1010.9,529.5 938.5,479.8" fill="rgb(26,27,30)" stroke="rgba(255,255,255,0.33)" stroke-width="2.3" filter="url(#shadow)"/>
<line x1="1055.0" y1="421.7" x2="1121.6" y2="479.4" stroke="rgba(255,255,255,0.20)" stroke-width="2" />
<polygon points="1116.0,487.9 1189.9,423.6 1286.8,444.4 1312.0,499.8 1259.2,547.1 1165.4,539.4" fill="rgb(29,30,33)" stroke="rgba(255,255,255,0.33)" stroke-width="2.3" filter="url(#shadow)"/>
<line x1="1189.9" y1="423.6" x2="1286.8" y2="444.4" stroke="rgba(255,255,255,0.20)" stroke-width="2" />
<polygon points="1347.2,448.4 1382.7,421.2 1469.2,432.8 1505.9,474.6 1444.7,523.3 1377.7,523.3" fill="rgb(21,22,25)" stroke="rgba(255,255,255,0.25)" stroke-width="2.3" filter="url(#shadow)"/>
<line x1="1382.7" y1="421.2" x2="1469.2" y2="432.8" stroke="rgba(255,255,255,0.20)" stroke-width="2" />
<polygon points="1620.6,428.7 1725.9,419.5 1769.4,506.3 1684.0,556.9 1602.0,522.6" fill="rgb(28,29,32)" stroke="rgba(255,255,255,0.19)" stroke-width="2.3" filter="url(#shadow)"/>
<line x1="1620.6" y1="428.7" x2="1725.9" y2="419.5" stroke="rgba(255,255,255,0.20)" stroke-width="2" />
<polygon points="90.0,637.3 159.9,620.6 203.5,670.1 170.2,758.9 130.2,772.0 59.8,728.6" fill="rgb(28,29,32)" stroke="rgba(255,255,255,0.24)" stroke-width="2.3" filter="url(#shadow)"/>
<line x1="90.0" y1="637.3" x2="159.9" y2="620.6" stroke="rgba(255,255,255,0.20)" stroke-width="2" />
<polygon points="314.5,644.4 364.6,639.3 439.0,688.7 381.4,731.7 306.8,721.8" fill="rgb(27,28,31)" stroke="rgba(255,255,255,0.32)" stroke-width="2.3" filter="url(#shadow)"/>
<line x1="314.5" y1="644.4" x2="364.6" y2="639.3" stroke="rgba(255,255,255,0.20)" stroke-width="2" />
<polygon points="497.6,646.9 595.5,641.7 604.4,772.3 479.2,756.8" fill="rgb(26,27,30)" stroke="rgba(255,255,255,0.23)" stroke-width="2.3" filter="url(#shadow)"/>
<line x1="497.6" y1="646.9" x2="595.5" y2="641.7" stroke="rgba(255,255,255,0.20)" stroke-width="2" />
<polygon points="720.6,670.5 786.1,631.1 857.8,641.8 874.7,713.2 788.9,756.8 731.2,732.8" fill="rgb(26,27,30)" stroke="rgba(255,255,255,0.30)" stroke-width="2.3" filter="url(#shadow)"/>
<line x1="786.1" y1="631.1" x2="857.8" y2="641.8" stroke="rgba(255,255,255,0.20)" stroke-width="2" />
<polygon points="931.0,634.4 993.5,620.5 1052.9,660.5 1056.1,717.8 980.7,753.7 913.3,713.1" fill="rgb(21,22,25)" stroke="rgba(255,255,255,0.28)" stroke-width="2.3" filter="url(#shadow)"/>
<line x1="931.0" y1="634.4" x2="993.5" y2="620.5" stroke="rgba(255,255,255,0.20)" stroke-width="2" />
<polygon points="1177.0,623.7 1279.7,616.1 1326.4,716.3 1243.0,754.6 1153.4,701.2" fill="rgb(27,28,31)" stroke="rgba(255,255,255,0.28)" stroke-width="2.3" filter="url(#shadow)"/>
<line x1="1177.0" y1="623.7" x2="1279.7" y2="616.1" stroke="rgba(255,255,255,0.20)" stroke-width="2" />
<polygon points="1473.0,609.4 1547.6,646.1 1470.8,724.2 1387.0,668.9" fill="rgb(22,23,26)" stroke="rgba(255,255,255,0.32)" stroke-width="2.3" filter="url(#shadow)"/>
<line x1="1473.0" y1="609.4" x2="1547.6" y2="646.1" stroke="rgba(255,255,255,0.20)" stroke-width="2" />
<polygon points="1617.8,637.4 1734.1,656.5 1714.5,731.4 1583.0,710.2" fill="rgb(32,33,36)" stroke="rgba(255,255,255,0.19)" stroke-width="2.3" filter="url(#shadow)"/>
<line x1="1617.8" y1="637.4" x2="1734.1" y2="656.5" stroke="rgba(255,255,255,0.20)" stroke-width="2" />
<polygon points="39.8,848.3 99.2,781.9 173.8,842.3 148.3,907.4 87.4,909.0" fill="rgb(22,23,26)" stroke="rgba(255,255,255,0.22)" stroke-width="2.3" filter="url(#shadow)"/>
<line x1="99.2" y1="781.9" x2="173.8" y2="842.3" stroke="rgba(255,255,255,0.20)" stroke-width="2" />
<polygon points="334.2,805.4 438.4,819.6 488.1,868.8 413.4,959.9 338.0,948.2 295.6,888.5" fill="rgb(20,21,24)" stroke="rgba(255,255,255,0.35)" stroke-width="2.3" filter="url(#shadow)"/>
<line x1="334.2" y1="805.4" x2="438.4" y2="819.6" stroke="rgba(255,255,255,0.20)" stroke-width="2" />
<polygon points="559.6,817.1 656.4,838.0 622.2,936.3 476.0,888.9" fill="rgb(30,31,34)" stroke="rgba(255,255,255,0.29)" stroke-width="2.3" filter="url(#shadow)"/>
<line x1="559.6" y1="817.1" x2="656.4" y2="838.0" stroke="rgba(255,255,255,0.20)" stroke-width="2" />
<polygon points="965.8,832.0 1037.1,849.9 1069.9,907.5 1011.5,969.3 954.0,963.8 931.5,904.8" fill="rgb(25,26,29)" stroke="rgba(255,255,255,0.28)" stroke-width="2.3" filter="url(#shadow)"/>
<line x1="965.8" y1="832.0" x2="1037.1" y2="849.9" stroke="rgba(255,255,255,0.20)" stroke-width="2" />
<polygon points="1157.9,848.7 1249.4,825.0 1315.0,900.2 1193.6,957.9" fill="rgb(26,27,30)" stroke="rgba(255,255,255,0.32)" stroke-width="2.3" filter="url(#shadow)"/>
<line x1="1157.9" y1="848.7" x2="1249.4" y2="825.0" stroke="rgba(255,255,255,0.20)" stroke-width="2" />
<polygon points="1374.5,834.8 1455.9,795.9 1495.1,888.1 1404.8,899.2" fill="rgb(21,22,25)" stroke="rgba(255,255,255,0.33)" stroke-width="2.3" filter="url(#shadow)"/>
<line x1="1374.5" y1="834.8" x2="1455.9" y2="795.9" stroke="rgba(255,255,255,0.20)" stroke-width="2" />
<polygon points="1557.7,857.3 1616.3,821.1 1695.1,877.0 1617.7,911.5" fill="rgb(24,25,28)" stroke="rgba(255,255,255,0.29)" stroke-width="2.3" filter="url(#shadow)"/>
<line x1="1557.7" y1="857.3" x2="1616.3" y2="821.1" stroke="rgba(255,255,255,0.20)" stroke-width="2" />
<polygon points="118.5,1041.5 233.2,1020.7 278.2,1083.1 182.2,1145.3 102.0,1107.7" fill="rgb(18,19,22)" stroke="rgba(255,255,255,0.29)" stroke-width="2.3" filter="url(#shadow)"/>
<line x1="118.5" y1="1041.5" x2="233.2" y2="1020.7" stroke="rgba(255,255,255,0.20)" stroke-width="2" />
<polygon points="272.8,1019.2 347.1,988.7 396.9,1069.3 359.0,1127.4 283.4,1085.4" fill="rgb(21,22,25)" stroke="rgba(255,255,255,0.24)" stroke-width="2.3" filter="url(#shadow)"/>
<line x1="272.8" y1="1019.2" x2="347.1" y2="988.7" stroke="rgba(255,255,255,0.20)" stroke-width="2" />
<polygon points="500.4,1020.0 561.1,1006.9 632.5,1040.4 612.5,1117.1 566.2,1137.9 497.0,1091.2" fill="rgb(27,28,31)" stroke="rgba(255,255,255,0.24)" stroke-width="2.3" filter="url(#shadow)"/>
<line x1="500.4" y1="1020.0" x2="561.1" y2="1006.9" stroke="rgba(255,255,255,0.20)" stroke-width="2" />
<polygon points="724.2,1013.9 823.9,1007.7 863.1,1045.6 834.3,1100.2 746.4,1113.6 695.8,1067.2" fill="rgb(22,23,26)" stroke="rgba(255,255,255,0.18)" stroke-width="2.3" filter="url(#shadow)"/>
<line x1="724.2" y1="1013.9" x2="823.9" y2="1007.7" stroke="rgba(255,255,255,0.20)" stroke-width="2" />
<polygon points="937.9,1003.1 1015.6,984.2 1031.1,1121.6 933.3,1114.8" fill="rgb(19,20,23)" stroke="rgba(255,255,255,0.19)" stroke-width="2.3" filter="url(#shadow)"/>
<line x1="937.9" y1="1003.1" x2="1015.6" y2="984.2" stroke="rgba(255,255,255,0.20)" stroke-width="2" />
<polygon points="1176.4,1048.0 1262.8,1011.9 1328.5,1061.3 1288.9,1156.8 1179.9,1135.9" fill="rgb(29,30,33)" stroke="rgba(255,255,255,0.31)" stroke-width="2.3" filter="url(#shadow)"/>
<line x1="1176.4" y1="1048.0" x2="1262.8" y2="1011.9" stroke="rgba(255,255,255,0.20)" stroke-width="2" />
<polygon points="1376.9,1024.1 1449.9,1005.9 1500.5,1083.6 1430.1,1176.4 1368.2,1106.1" fill="rgb(19,20,23)" stroke="rgba(255,255,255,0.26)" stroke-width="2.3" filter="url(#shadow)"/>
<line x1="1376.9" y1="1024.1" x2="1449.9" y2="1005.9" stroke="rgba(255,255,255,0.20)" stroke-width="2" />
<polygon points="1596.5,1003.9 1697.2,985.2 1744.6,1045.8 1678.6,1110.7 1572.7,1073.3" fill="rgb(20,21,24)" stroke="rgba(255,255,255,0.28)" stroke-width="2.3" filter="url(#shadow)"/>
<line x1="1596.5" y1="1003.9" x2="1697.2" y2="985.2" stroke="rgba(255,255,255,0.20)" stroke-width="2" />
<polygon points="431.2,571.0 618.3,631.5 609.1,659.9 422.0,599.4" fill="rgb(17,17,20)" stroke="rgba(255,255,255,0.12)" stroke-width="2" filter="url(#shadow)" opacity="0.95"/>
<polygon points="638.0,771.1 938.9,795.3 934.8,846.9 633.9,822.7" fill="rgb(22,22,25)" stroke="rgba(255,255,255,0.12)" stroke-width="2" filter="url(#shadow)" opacity="0.95"/>
<polygon points="559.1,1183.7 729.6,1084.1 749.3,1117.8 578.8,1217.4" fill="rgb(23,23,26)" stroke="rgba(255,255,255,0.12)" stroke-width="2" filter="url(#shadow)" opacity="0.95"/>
<polygon points="65.7,1177.3 271.6,968.2 308.5,1004.6 102.6,1213.6" fill="rgb(24,24,27)" stroke="rgba(255,255,255,0.12)" stroke-width="2" filter="url(#shadow)" opacity="0.95"/>
<polygon points="1228.2,953.5 1465.5,987.8 1459.8,1027.5 1222.5,993.2" fill="rgb(17,17,20)" stroke="rgba(255,255,255,0.12)" stroke-width="2" filter="url(#shadow)" opacity="0.95"/>
<polygon points="560.2,380.3 664.1,255.9 697.1,283.4 593.1,407.8" fill="rgb(18,18,21)" stroke="rgba(255,255,255,0.12)" stroke-width="2" filter="url(#shadow)" opacity="0.95"/>
<polygon points="1322.7,280.8 1471.8,131.2 1496.0,155.3 1346.9,305.0" fill="rgb(22,22,25)" stroke="rgba(255,255,255,0.12)" stroke-width="2" filter="url(#shadow)" opacity="0.95"/>
<polygon points="846.4,611.4 1043.9,585.7 1048.4,620.5 850.9,646.2" fill="rgb(14,14,17)" stroke="rgba(255,255,255,0.12)" stroke-width="2" filter="url(#shadow)" opacity="0.95"/>
<polygon points="1279.0,766.8 1619.8,651.4 1633.8,692.5 1292.9,807.9" fill="rgb(24,24,27)" stroke="rgba(255,255,255,0.12)" stroke-width="2" filter="url(#shadow)" opacity="0.95"/>
<polygon points="-2.9,1238.2 192.4,976.9 233.6,1007.6 38.2,1268.9" fill="rgb(18,18,21)" stroke="rgba(255,255,255,0.12)" stroke-width="2" filter="url(#shadow)" opacity="0.95"/>
<rect width="100%" height="100%" fill="url(#bg)" opacity="0.10"/>
</svg>